<svg width="1200" height="600" viewBox="0 0 1200 600" fill="none" xmlns="http://www.w3.org/2000/svg">
<g clip-path="url(#clip0)">
<rect width="1200" height="600" fill="white"/>
<rect width="1200" height="600" fill="url(#paint0_linear)"/>
<g filter="url(#filter0_d)">
<path d="M200 45C200 42.2386 202.239 40 205 40H995C997.761 40 1000 42.2386 1000 45V600H200V45Z" fill="white"/>
</g>
<path d="M200 45C200 42.2386 202.239 40 205 40H995C997.761 40 1000 42.2386 1000 45V70H200V45Z" fill="#40434E"/>
<rect x="200" y="70" width="800" height="50" fill="#E5E5E5"/>
<rect x="320" y="80" width="400" height="30" rx="5" fill="white"/>
<circle cx="222.5" cy="55.5" r="7.5" fill="white"/>
<circle cx="247.5" cy="55.5" r="7.5" fill="white"/>
<circle cx="272.5" cy="55.5" r="7.5" fill="white"/>
<path d="M300 45C300 42.2386 302.239 40 305 40H450C452.761 40 455 42.2386 455 45V70H300V45Z" fill="#E5E5E5"/>
<rect x="240.25" y="135.25" width="719.5" height="39.5" rx="1.75" fill="#E8F1F5" fill-opacity="0.5" stroke="#004A7C" stroke-width="0.5"/>
<path d="M558.16 155.466L564.874 150.912V152.334L559.456 155.988V156.06L564.874 159.714V161.136L558.16 156.582V155.466ZM568.089 149.382H570.735V152.478L570.591 154.188C570.771 154.02 570.963 153.858 571.167 153.702C571.383 153.534 571.611 153.39 571.851 153.27C572.103 153.138 572.373 153.036 572.661 152.964C572.961 152.892 573.279 152.856 573.615 152.856C574.623 152.856 575.355 153.18 575.811 153.828C576.279 154.476 576.513 155.364 576.513 156.492V162H573.867V156.834C573.867 156.234 573.771 155.796 573.579 155.52C573.387 155.244 573.045 155.106 572.553 155.106C572.193 155.106 571.875 155.184 571.599 155.34C571.335 155.496 571.047 155.73 570.735 156.042V162H568.089V149.382ZM578.576 157.536C578.576 156.804 578.702 156.15 578.954 155.574C579.218 154.998 579.566 154.512 579.998 154.116C580.43 153.708 580.922 153.396 581.474 153.18C582.038 152.964 582.62 152.856 583.22 152.856C583.904 152.856 584.51 152.964 585.038 153.18C585.566 153.396 586.004 153.696 586.352 154.08C586.7 154.464 586.964 154.92 587.144 155.448C587.324 155.964 587.414 156.528 587.414 157.14C587.414 157.38 587.402 157.608 587.378 157.824C587.354 158.04 587.33 158.202 587.306 158.31H581.294C581.39 158.982 581.678 159.468 582.158 159.768C582.65 160.056 583.226 160.2 583.886 160.2C584.294 160.2 584.678 160.152 585.038 160.056C585.41 159.948 585.794 159.792 586.19 159.588L587.054 161.172C586.55 161.496 585.986 161.754 585.362 161.946C584.738 162.126 584.126 162.216 583.526 162.216C582.83 162.216 582.182 162.114 581.582 161.91C580.982 161.694 580.46 161.388 580.016 160.992C579.572 160.584 579.218 160.092 578.954 159.516C578.702 158.94 578.576 158.28 578.576 157.536ZM585.02 156.564C585.02 156.06 584.882 155.652 584.606 155.34C584.33 155.028 583.886 154.872 583.274 154.872C582.794 154.872 582.368 155.01 581.996 155.286C581.624 155.562 581.378 155.988 581.258 156.564H585.02ZM589.477 159.516C589.477 159.012 589.585 158.574 589.801 158.202C590.017 157.818 590.359 157.494 590.827 157.23C591.307 156.966 591.919 156.756 592.663 156.6C593.407 156.432 594.307 156.318 595.363 156.258C595.315 155.85 595.135 155.532 594.823 155.304C594.523 155.076 594.067 154.962 593.455 154.962C593.023 154.962 592.585 155.04 592.141 155.196C591.709 155.34 591.241 155.538 590.737 155.79L589.801 154.062C590.413 153.714 591.067 153.426 591.763 153.198C592.471 152.97 593.209 152.856 593.977 152.856C595.225 152.856 596.209 153.186 596.929 153.846C597.649 154.506 598.009 155.52 598.009 156.888V162H595.849L595.651 160.992H595.579C595.123 161.34 594.625 161.634 594.085 161.874C593.545 162.102 592.987 162.216 592.411 162.216C591.955 162.216 591.547 162.144 591.187 162C590.827 161.868 590.521 161.682 590.269 161.442C590.017 161.19 589.819 160.902 589.675 160.578C589.543 160.254 589.477 159.9 589.477 159.516ZM592.015 159.318C592.015 159.606 592.123 159.822 592.339 159.966C592.567 160.098 592.873 160.164 593.257 160.164C593.653 160.164 594.025 160.086 594.373 159.93C594.721 159.762 595.051 159.558 595.363 159.318V157.842C594.703 157.878 594.157 157.938 593.725 158.022C593.293 158.106 592.951 158.214 592.699 158.346C592.447 158.466 592.267 158.61 592.159 158.778C592.063 158.946 592.015 159.126 592.015 159.318ZM600.018 157.536C600.018 156.804 600.126 156.15 600.342 155.574C600.558 154.998 600.84 154.512 601.188 154.116C601.548 153.708 601.956 153.396 602.412 153.18C602.868 152.964 603.342 152.856 603.834 152.856C604.35 152.856 604.782 152.946 605.13 153.126C605.478 153.294 605.808 153.522 606.12 153.81L606.03 152.424V149.382H608.676V162H606.516L606.318 161.082H606.264C605.928 161.406 605.544 161.676 605.112 161.892C604.68 162.108 604.236 162.216 603.78 162.216C603.216 162.216 602.7 162.108 602.232 161.892C601.776 161.676 601.38 161.37 601.044 160.974C600.72 160.566 600.468 160.074 600.288 159.498C600.108 158.922 600.018 158.268 600.018 157.536ZM602.736 157.5C602.736 158.388 602.886 159.036 603.186 159.444C603.486 159.852 603.912 160.056 604.464 160.056C604.764 160.056 605.04 159.996 605.292 159.876C605.544 159.744 605.79 159.528 606.03 159.228V155.61C605.79 155.394 605.544 155.244 605.292 155.16C605.052 155.064 604.8 155.016 604.536 155.016C604.044 155.016 603.618 155.22 603.258 155.628C602.91 156.036 602.736 156.66 602.736 157.5ZM610.955 157.536C610.955 156.804 611.081 156.15 611.333 155.574C611.597 154.998 611.945 154.512 612.377 154.116C612.809 153.708 613.301 153.396 613.853 153.18C614.417 152.964 614.999 152.856 615.599 152.856C616.283 152.856 616.889 152.964 617.417 153.18C617.945 153.396 618.383 153.696 618.731 154.08C619.079 154.464 619.343 154.92 619.523 155.448C619.703 155.964 619.793 156.528 619.793 157.14C619.793 157.38 619.781 157.608 619.757 157.824C619.733 158.04 619.709 158.202 619.685 158.31H613.673C613.769 158.982 614.057 159.468 614.537 159.768C615.029 160.056 615.605 160.2 616.265 160.2C616.673 160.2 617.057 160.152 617.417 160.056C617.789 159.948 618.173 159.792 618.569 159.588L619.433 161.172C618.929 161.496 618.365 161.754 617.741 161.946C617.117 162.126 616.505 162.216 615.905 162.216C615.209 162.216 614.561 162.114 613.961 161.91C613.361 161.694 612.839 161.388 612.395 160.992C611.951 160.584 611.597 160.092 611.333 159.516C611.081 158.94 610.955 158.28 610.955 157.536ZM617.399 156.564C617.399 156.06 617.261 155.652 616.985 155.34C616.709 155.028 616.265 154.872 615.653 154.872C615.173 154.872 614.747 155.01 614.375 155.286C614.003 155.562 613.757 155.988 613.637 156.564H617.399ZM622.846 153.072H625.006L625.222 155.016H625.276C625.72 154.284 626.254 153.744 626.878 153.396C627.502 153.036 628.174 152.856 628.894 152.856C629.29 152.856 629.608 152.886 629.848 152.946C630.1 153.006 630.358 153.096 630.622 153.216L630.082 155.43C629.806 155.346 629.554 155.286 629.326 155.25C629.11 155.202 628.834 155.178 628.498 155.178C627.946 155.178 627.4 155.34 626.86 155.664C626.332 155.988 625.876 156.552 625.492 157.356V162H622.846V153.072ZM640.191 156.582L633.477 161.136V159.714L638.895 156.06V155.988L633.477 152.334V150.912L640.191 155.466V156.582Z" fill="#004A7C"/>
<rect x="380.25" y="190.25" width="579.5" height="339.5" rx="1.75" fill="#E8F1F5" fill-opacity="0.5" stroke="#004A7C" stroke-width="0.5"/>
<path d="M640.281 211.466L646.995 206.912V208.334L641.577 211.988V212.06L646.995 215.714V217.136L640.281 212.582V211.466ZM649.562 209.072H651.542L651.74 210.188H651.812C651.98 209.816 652.208 209.504 652.496 209.252C652.796 208.988 653.204 208.856 653.72 208.856C654.116 208.856 654.446 208.982 654.71 209.234C654.986 209.474 655.178 209.834 655.286 210.314C655.454 209.906 655.694 209.564 656.006 209.288C656.33 209 656.744 208.856 657.248 208.856C657.872 208.856 658.358 209.114 658.706 209.63C659.054 210.134 659.228 210.836 659.228 211.736V218H656.744V211.934C656.744 211.382 656.576 211.106 656.24 211.106C655.916 211.106 655.64 211.394 655.412 211.97V218H653.378V211.934C653.378 211.382 653.204 211.106 652.856 211.106C652.688 211.106 652.544 211.178 652.424 211.322C652.304 211.466 652.178 211.682 652.046 211.97V218H649.562V209.072ZM660.805 215.516C660.805 215.012 660.913 214.574 661.129 214.202C661.345 213.818 661.687 213.494 662.155 213.23C662.635 212.966 663.247 212.756 663.991 212.6C664.735 212.432 665.635 212.318 666.691 212.258C666.643 211.85 666.463 211.532 666.151 211.304C665.851 211.076 665.395 210.962 664.783 210.962C664.351 210.962 663.913 211.04 663.469 211.196C663.037 211.34 662.569 211.538 662.065 211.79L661.129 210.062C661.741 209.714 662.395 209.426 663.091 209.198C663.799 208.97 664.537 208.856 665.305 208.856C666.553 208.856 667.537 209.186 668.257 209.846C668.977 210.506 669.337 211.52 669.337 212.888V218H667.177L666.979 216.992H666.907C666.451 217.34 665.953 217.634 665.413 217.874C664.873 218.102 664.315 218.216 663.739 218.216C663.283 218.216 662.875 218.144 662.515 218C662.155 217.868 661.849 217.682 661.597 217.442C661.345 217.19 661.147 216.902 661.003 216.578C660.871 216.254 660.805 215.9 660.805 215.516ZM663.343 215.318C663.343 215.606 663.451 215.822 663.667 215.966C663.895 216.098 664.201 216.164 664.585 216.164C664.981 216.164 665.353 216.086 665.701 215.93C666.049 215.762 666.379 215.558 666.691 215.318V213.842C666.031 213.878 665.485 213.938 665.053 214.022C664.621 214.106 664.279 214.214 664.027 214.346C663.775 214.466 663.595 214.61 663.487 214.778C663.391 214.946 663.343 215.126 663.343 215.318ZM671.922 209.072H678.15V218H675.504V211.142H671.922V209.072ZM676.71 207.758C676.194 207.758 675.768 207.614 675.432 207.326C675.108 207.038 674.946 206.648 674.946 206.156C674.946 205.664 675.108 205.268 675.432 204.968C675.768 204.656 676.194 204.5 676.71 204.5C677.226 204.5 677.646 204.656 677.97 204.968C678.306 205.268 678.474 205.664 678.474 206.156C678.474 206.648 678.306 207.038 677.97 207.326C677.646 207.614 677.226 207.758 676.71 207.758ZM682.589 209.072H684.749L684.947 210.26H685.019C685.403 209.876 685.841 209.546 686.333 209.27C686.837 208.994 687.425 208.856 688.097 208.856C689.105 208.856 689.843 209.18 690.311 209.828C690.779 210.476 691.013 211.364 691.013 212.492V218H688.367V212.834C688.367 212.234 688.271 211.796 688.079 211.52C687.887 211.244 687.545 211.106 687.053 211.106C686.693 211.106 686.375 211.184 686.099 211.34C685.835 211.496 685.547 211.73 685.235 212.042V218H682.589V209.072ZM700.726 212.582L694.012 217.136V215.714L699.43 212.06V211.988L694.012 208.334V206.912L700.726 211.466V212.582Z" fill="#004A7C"/>
<rect x="410.25" y="240.25" width="519.5" height="29.5" rx="1.75" fill="#E8F1F5" fill-opacity="0.5" stroke="#004A7C" stroke-width="0.5"/>
<path d="M422.574 254.466L429.288 249.912V251.334L423.87 254.988V255.06L429.288 258.714V260.136L422.574 255.582V254.466ZM432.503 248.382H435.149V251.478L435.005 253.188C435.185 253.02 435.377 252.858 435.581 252.702C435.797 252.534 436.025 252.39 436.265 252.27C436.517 252.138 436.787 252.036 437.075 251.964C437.375 251.892 437.693 251.856 438.029 251.856C439.037 251.856 439.769 252.18 440.225 252.828C440.693 253.476 440.927 254.364 440.927 255.492V261H438.281V255.834C438.281 255.234 438.185 254.796 437.993 254.52C437.801 254.244 437.459 254.106 436.967 254.106C436.607 254.106 436.289 254.184 436.013 254.34C435.749 254.496 435.461 254.73 435.149 255.042V261H432.503V248.382ZM451.666 258.858V261H443.476V258.858H446.428V252.252H444.07V250.614C444.742 250.494 445.312 250.35 445.78 250.182C446.26 250.014 446.71 249.81 447.13 249.57H449.074V258.858H451.666ZM461.433 255.582L454.719 260.136V258.714L460.137 255.06V254.988L454.719 251.334V249.912L461.433 254.466V255.582Z" fill="#004A7C"/>
<rect x="410.25" y="380.25" width="519.5" height="29.5" rx="1.75" fill="#E8F1F5" fill-opacity="0.5" stroke="#004A7C" stroke-width="0.5"/>
<path d="M422.574 394.466L429.288 389.912V391.334L423.87 394.988V395.06L429.288 398.714V400.136L422.574 395.582V394.466ZM432.503 388.382H435.149V391.478L435.005 393.188C435.185 393.02 435.377 392.858 435.581 392.702C435.797 392.534 436.025 392.39 436.265 392.27C436.517 392.138 436.787 392.036 437.075 391.964C437.375 391.892 437.693 391.856 438.029 391.856C439.037 391.856 439.769 392.18 440.225 392.828C440.693 393.476 440.927 394.364 440.927 395.492V401H438.281V395.834C438.281 395.234 438.185 394.796 437.993 394.52C437.801 394.244 437.459 394.106 436.967 394.106C436.607 394.106 436.289 394.184 436.013 394.34C435.749 394.496 435.461 394.73 435.149 395.042V401H432.503V388.382ZM443.044 399.488C443.86 398.804 444.604 398.168 445.276 397.58C445.948 396.98 446.524 396.422 447.004 395.906C447.484 395.39 447.856 394.904 448.12 394.448C448.384 393.992 448.516 393.56 448.516 393.152C448.516 392.588 448.354 392.162 448.03 391.874C447.706 391.574 447.244 391.424 446.644 391.424C446.188 391.424 445.768 391.544 445.384 391.784C445.012 392.012 444.664 392.282 444.34 392.594L442.918 391.172C443.218 390.872 443.512 390.608 443.8 390.38C444.1 390.152 444.412 389.966 444.736 389.822C445.072 389.666 445.42 389.552 445.78 389.48C446.152 389.396 446.56 389.354 447.004 389.354C447.604 389.354 448.15 389.444 448.642 389.624C449.134 389.792 449.554 390.038 449.902 390.362C450.262 390.674 450.538 391.052 450.73 391.496C450.934 391.94 451.036 392.438 451.036 392.99C451.036 393.47 450.922 393.962 450.694 394.466C450.466 394.958 450.154 395.456 449.758 395.96C449.374 396.452 448.93 396.95 448.426 397.454C447.922 397.946 447.394 398.432 446.842 398.912C447.166 398.876 447.514 398.846 447.886 398.822C448.27 398.786 448.612 398.768 448.912 398.768H451.63V401H443.044V399.488ZM461.433 395.582L454.719 400.136V398.714L460.137 395.06V394.988L454.719 391.334V389.912L461.433 394.466V395.582Z" fill="#004A7C"/>
<rect x="410.25" y="280.25" width="519.5" height="89.5" rx="1.75" fill="#E8F1F5" fill-opacity="0.5" stroke="#004A7C" stroke-width="0.5"/>
<path d="M422.471 296.466L429.185 291.912V293.334L423.767 296.988V297.06L429.185 300.714V302.136L422.471 297.582V296.466ZM435.046 303.702V306.312H432.4V294.072H434.56L434.758 294.972H434.812C435.172 294.648 435.586 294.384 436.054 294.18C436.522 293.964 436.996 293.856 437.476 293.856C438.028 293.856 438.526 293.964 438.97 294.18C439.414 294.396 439.792 294.702 440.104 295.098C440.416 295.494 440.65 295.974 440.806 296.538C440.974 297.09 441.058 297.708 441.058 298.392C441.058 299.16 440.95 299.844 440.734 300.444C440.518 301.032 440.23 301.536 439.87 301.956C439.51 302.364 439.096 302.676 438.628 302.892C438.172 303.108 437.692 303.216 437.188 303.216C436.372 303.216 435.628 302.892 434.956 302.244L435.046 303.702ZM435.046 300.462C435.298 300.678 435.556 300.834 435.82 300.93C436.096 301.014 436.348 301.056 436.576 301.056C437.08 301.056 437.5 300.852 437.836 300.444C438.172 300.024 438.34 299.352 438.34 298.428C438.34 296.82 437.794 296.016 436.702 296.016C436.138 296.016 435.586 296.292 435.046 296.844V300.462ZM450.536 297.582L443.822 302.136V300.714L449.24 297.06V296.988L443.822 293.334V291.912L450.536 296.466V297.582Z" fill="#004A7C"/>
<rect x="410.25" y="421.25" width="249.5" height="89.5" rx="1.75" fill="#E8F1F5" fill-opacity="0.5" stroke="#004A7C" stroke-width="0.5"/>
<path d="M422.471 437.466L429.185 432.912V434.334L423.767 437.988V438.06L429.185 441.714V443.136L422.471 438.582V437.466ZM435.046 444.702V447.312H432.4V435.072H434.56L434.758 435.972H434.812C435.172 435.648 435.586 435.384 436.054 435.18C436.522 434.964 436.996 434.856 437.476 434.856C438.028 434.856 438.526 434.964 438.97 435.18C439.414 435.396 439.792 435.702 440.104 436.098C440.416 436.494 440.65 436.974 440.806 437.538C440.974 438.09 441.058 438.708 441.058 439.392C441.058 440.16 440.95 440.844 440.734 441.444C440.518 442.032 440.23 442.536 439.87 442.956C439.51 443.364 439.096 443.676 438.628 443.892C438.172 444.108 437.692 444.216 437.188 444.216C436.372 444.216 435.628 443.892 434.956 443.244L435.046 444.702ZM435.046 441.462C435.298 441.678 435.556 441.834 435.82 441.93C436.096 442.014 436.348 442.056 436.576 442.056C437.08 442.056 437.5 441.852 437.836 441.444C438.172 441.024 438.34 440.352 438.34 439.428C438.34 437.82 437.794 437.016 436.702 437.016C436.138 437.016 435.586 437.292 435.046 437.844V441.462ZM450.536 438.582L443.822 443.136V441.714L449.24 438.06V437.988L443.822 434.334V432.912L450.536 437.466V438.582Z" fill="#004A7C"/>
<rect x="680.25" y="421.25" width="249.5" height="89.5" rx="1.75" fill="#E8F1F5" fill-opacity="0.5" stroke="#004A7C" stroke-width="0.5"/>
<path d="M692.16 437.466L698.874 432.912V434.334L693.456 437.988V438.06L698.874 441.714V443.136L692.16 438.582V437.466ZM702.215 435.072H708.443V444H705.797V437.142H702.215V435.072ZM707.003 433.758C706.487 433.758 706.061 433.614 705.725 433.326C705.401 433.038 705.239 432.648 705.239 432.156C705.239 431.664 705.401 431.268 705.725 430.968C706.061 430.656 706.487 430.5 707.003 430.5C707.519 430.5 707.939 430.656 708.263 430.968C708.599 431.268 708.767 431.664 708.767 432.156C708.767 432.648 708.599 433.038 708.263 433.326C707.939 433.614 707.519 433.758 707.003 433.758ZM712.234 435.072H714.214L714.412 436.188H714.484C714.652 435.816 714.88 435.504 715.168 435.252C715.468 434.988 715.876 434.856 716.392 434.856C716.788 434.856 717.118 434.982 717.382 435.234C717.658 435.474 717.85 435.834 717.958 436.314C718.126 435.906 718.366 435.564 718.678 435.288C719.002 435 719.416 434.856 719.92 434.856C720.544 434.856 721.03 435.114 721.378 435.63C721.726 436.134 721.9 436.836 721.9 437.736V444H719.416V437.934C719.416 437.382 719.248 437.106 718.912 437.106C718.588 437.106 718.312 437.394 718.084 437.97V444H716.05V437.934C716.05 437.382 715.876 437.106 715.528 437.106C715.36 437.106 715.216 437.178 715.096 437.322C714.976 437.466 714.85 437.682 714.718 437.97V444H712.234V435.072ZM725.475 445.116C725.475 445.452 725.673 445.704 726.069 445.872C726.477 446.052 727.035 446.142 727.743 446.142C728.463 446.142 729.045 446.034 729.489 445.818C729.933 445.614 730.155 445.356 730.155 445.044C730.155 444.756 730.023 444.564 729.759 444.468C729.495 444.384 729.105 444.342 728.589 444.342H727.473C727.149 444.342 726.879 444.33 726.663 444.306C726.459 444.294 726.273 444.27 726.105 444.234C725.877 444.378 725.715 444.516 725.619 444.648C725.523 444.792 725.475 444.948 725.475 445.116ZM723.315 445.512C723.315 444.78 723.777 444.186 724.701 443.73V443.658C724.461 443.502 724.251 443.304 724.071 443.064C723.891 442.824 723.801 442.512 723.801 442.128C723.801 441.828 723.897 441.528 724.089 441.228C724.293 440.928 724.551 440.67 724.863 440.454V440.382C724.539 440.166 724.263 439.866 724.035 439.482C723.807 439.086 723.693 438.624 723.693 438.096C723.693 437.556 723.795 437.088 723.999 436.692C724.215 436.284 724.497 435.948 724.845 435.684C725.193 435.408 725.595 435.204 726.051 435.072C726.519 434.928 727.005 434.856 727.509 434.856C728.061 434.856 728.553 434.928 728.985 435.072H732.603V436.998H730.785C730.893 437.13 730.989 437.304 731.073 437.52C731.157 437.724 731.199 437.946 731.199 438.186C731.199 438.702 731.103 439.146 730.911 439.518C730.719 439.89 730.455 440.202 730.119 440.454C729.795 440.694 729.405 440.874 728.949 440.994C728.505 441.114 728.025 441.174 727.509 441.174C727.125 441.174 726.717 441.114 726.285 440.994C726.153 441.09 726.051 441.186 725.979 441.282C725.919 441.378 725.889 441.498 725.889 441.642C725.889 441.882 726.009 442.056 726.249 442.164C726.489 442.272 726.873 442.326 727.401 442.326H729.057C730.233 442.326 731.127 442.5 731.739 442.848C732.363 443.196 732.675 443.772 732.675 444.576C732.675 445.044 732.549 445.476 732.297 445.872C732.045 446.268 731.691 446.604 731.235 446.88C730.779 447.168 730.221 447.39 729.561 447.546C728.901 447.714 728.169 447.798 727.365 447.798C726.789 447.798 726.249 447.75 725.745 447.654C725.253 447.57 724.827 447.432 724.467 447.24C724.107 447.06 723.825 446.826 723.621 446.538C723.417 446.25 723.315 445.908 723.315 445.512ZM727.509 439.572C727.881 439.572 728.199 439.452 728.463 439.212C728.739 438.96 728.877 438.588 728.877 438.096C728.877 437.616 728.739 437.256 728.463 437.016C728.199 436.764 727.881 436.638 727.509 436.638C727.137 436.638 726.819 436.764 726.555 437.016C726.303 437.256 726.177 437.616 726.177 438.096C726.177 438.588 726.303 438.96 726.555 439.212C726.819 439.452 727.137 439.572 727.509 439.572ZM741.812 438.582L735.098 443.136V441.714L740.516 438.06V437.988L735.098 434.334V432.912L741.812 437.466V438.582Z" fill="#004A7C"/>
<rect x="240.25" y="545.25" width="719.5" height="39.5" rx="1.75" fill="#E8F1F5" fill-opacity="0.5" stroke="#004A7C" stroke-width="0.5"/>
<path d="M558.488 564.466L565.202 559.912V561.334L559.784 564.988V565.06L565.202 568.714V570.136L558.488 565.582V564.466ZM577.147 560.596C576.559 560.368 575.935 560.254 575.275 560.254C574.699 560.254 574.273 560.38 573.997 560.632C573.733 560.884 573.601 561.28 573.601 561.82V562.072H576.679V564.142H573.601V571H570.955V564.142H568.597V562.18L570.955 562.072V561.838C570.955 561.322 571.033 560.842 571.189 560.398C571.345 559.954 571.585 559.57 571.909 559.246C572.233 558.91 572.647 558.646 573.151 558.454C573.655 558.262 574.255 558.166 574.951 558.166C575.467 558.166 575.947 558.214 576.391 558.31C576.847 558.406 577.267 558.52 577.651 558.652L577.147 560.596ZM578.76 566.536C578.76 565.792 578.886 565.132 579.138 564.556C579.39 563.968 579.726 563.476 580.146 563.08C580.578 562.684 581.064 562.384 581.604 562.18C582.156 561.964 582.726 561.856 583.314 561.856C583.902 561.856 584.466 561.964 585.006 562.18C585.558 562.384 586.044 562.684 586.464 563.08C586.896 563.476 587.238 563.968 587.49 564.556C587.742 565.132 587.868 565.792 587.868 566.536C587.868 567.28 587.742 567.946 587.49 568.534C587.238 569.11 586.896 569.596 586.464 569.992C586.044 570.388 585.558 570.694 585.006 570.91C584.466 571.114 583.902 571.216 583.314 571.216C582.726 571.216 582.156 571.114 581.604 570.91C581.064 570.694 580.578 570.388 580.146 569.992C579.726 569.596 579.39 569.11 579.138 568.534C578.886 567.946 578.76 567.28 578.76 566.536ZM581.478 566.536C581.478 567.316 581.628 567.934 581.928 568.39C582.24 568.846 582.702 569.074 583.314 569.074C583.926 569.074 584.382 568.846 584.682 568.39C584.994 567.934 585.15 567.316 585.15 566.536C585.15 565.756 584.994 565.138 584.682 564.682C584.382 564.226 583.926 563.998 583.314 563.998C582.702 563.998 582.24 564.226 581.928 564.682C581.628 565.138 581.478 565.756 581.478 566.536ZM589.553 566.536C589.553 565.792 589.679 565.132 589.931 564.556C590.183 563.968 590.519 563.476 590.939 563.08C591.371 562.684 591.857 562.384 592.397 562.18C592.949 561.964 593.519 561.856 594.107 561.856C594.695 561.856 595.259 561.964 595.799 562.18C596.351 562.384 596.837 562.684 597.257 563.08C597.689 563.476 598.031 563.968 598.283 564.556C598.535 565.132 598.661 565.792 598.661 566.536C598.661 567.28 598.535 567.946 598.283 568.534C598.031 569.11 597.689 569.596 597.257 569.992C596.837 570.388 596.351 570.694 595.799 570.91C595.259 571.114 594.695 571.216 594.107 571.216C593.519 571.216 592.949 571.114 592.397 570.91C591.857 570.694 591.371 570.388 590.939 569.992C590.519 569.596 590.183 569.11 589.931 568.534C589.679 567.946 589.553 567.28 589.553 566.536ZM592.271 566.536C592.271 567.316 592.421 567.934 592.721 568.39C593.033 568.846 593.495 569.074 594.107 569.074C594.719 569.074 595.175 568.846 595.475 568.39C595.787 567.934 595.943 567.316 595.943 566.536C595.943 565.756 595.787 565.138 595.475 564.682C595.175 564.226 594.719 563.998 594.107 563.998C593.495 563.998 593.033 564.226 592.721 564.682C592.421 565.138 592.271 565.756 592.271 566.536ZM602.632 564.142H600.382V562.18L602.758 562.072L603.1 559.696H605.278V562.072H609.058V564.142H605.278V567.274C605.278 567.958 605.428 568.444 605.728 568.732C606.028 569.008 606.502 569.146 607.15 569.146C607.498 569.146 607.816 569.116 608.104 569.056C608.392 568.996 608.668 568.918 608.932 568.822L609.4 570.73C609.004 570.85 608.56 570.958 608.068 571.054C607.588 571.162 607.06 571.216 606.484 571.216C605.776 571.216 605.176 571.12 604.684 570.928C604.192 570.736 603.79 570.472 603.478 570.136C603.178 569.788 602.962 569.374 602.83 568.894C602.698 568.414 602.632 567.88 602.632 567.292V564.142ZM611.283 566.536C611.283 565.804 611.409 565.15 611.661 564.574C611.925 563.998 612.273 563.512 612.705 563.116C613.137 562.708 613.629 562.396 614.181 562.18C614.745 561.964 615.327 561.856 615.927 561.856C616.611 561.856 617.217 561.964 617.745 562.18C618.273 562.396 618.711 562.696 619.059 563.08C619.407 563.464 619.671 563.92 619.851 564.448C620.031 564.964 620.121 565.528 620.121 566.14C620.121 566.38 620.109 566.608 620.085 566.824C620.061 567.04 620.037 567.202 620.013 567.31H614.001C614.097 567.982 614.385 568.468 614.865 568.768C615.357 569.056 615.933 569.2 616.593 569.2C617.001 569.2 617.385 569.152 617.745 569.056C618.117 568.948 618.501 568.792 618.897 568.588L619.761 570.172C619.257 570.496 618.693 570.754 618.069 570.946C617.445 571.126 616.833 571.216 616.233 571.216C615.537 571.216 614.889 571.114 614.289 570.91C613.689 570.694 613.167 570.388 612.723 569.992C612.279 569.584 611.925 569.092 611.661 568.516C611.409 567.94 611.283 567.28 611.283 566.536ZM617.727 565.564C617.727 565.06 617.589 564.652 617.313 564.34C617.037 564.028 616.593 563.872 615.981 563.872C615.501 563.872 615.075 564.01 614.703 564.286C614.331 564.562 614.085 564.988 613.965 565.564H617.727ZM623.174 562.072H625.334L625.55 564.016H625.604C626.048 563.284 626.582 562.744 627.206 562.396C627.83 562.036 628.502 561.856 629.222 561.856C629.618 561.856 629.936 561.886 630.176 561.946C630.428 562.006 630.686 562.096 630.95 562.216L630.41 564.43C630.134 564.346 629.882 564.286 629.654 564.25C629.438 564.202 629.162 564.178 628.826 564.178C628.274 564.178 627.728 564.34 627.188 564.664C626.66 564.988 626.204 565.552 625.82 566.356V571H623.174V562.072ZM640.519 565.582L633.805 570.136V568.714L639.223 565.06V564.988L633.805 561.334V559.912L640.519 564.466V565.582Z" fill="#004A7C"/>
<rect x="240.25" y="190.25" width="124.5" height="169.5" rx="1.75" fill="#E8F1F5" fill-opacity="0.5" stroke="#004A7C" stroke-width="0.5"/>
<path d="M277.678 211.466L284.392 206.912V208.334L278.974 211.988V212.06L284.392 215.714V217.136L277.678 212.582V211.466ZM287.607 209.072H289.767L289.965 210.26H290.037C290.421 209.876 290.859 209.546 291.351 209.27C291.855 208.994 292.443 208.856 293.115 208.856C294.123 208.856 294.861 209.18 295.329 209.828C295.797 210.476 296.031 211.364 296.031 212.492V218H293.385V212.834C293.385 212.234 293.289 211.796 293.097 211.52C292.905 211.244 292.563 211.106 292.071 211.106C291.711 211.106 291.393 211.184 291.117 211.34C290.853 211.496 290.565 211.73 290.253 212.042V218H287.607V209.072ZM298.202 215.516C298.202 215.012 298.31 214.574 298.526 214.202C298.742 213.818 299.084 213.494 299.552 213.23C300.032 212.966 300.644 212.756 301.388 212.6C302.132 212.432 303.032 212.318 304.088 212.258C304.04 211.85 303.86 211.532 303.548 211.304C303.248 211.076 302.792 210.962 302.18 210.962C301.748 210.962 301.31 211.04 300.866 211.196C300.434 211.34 299.966 211.538 299.462 211.79L298.526 210.062C299.138 209.714 299.792 209.426 300.488 209.198C301.196 208.97 301.934 208.856 302.702 208.856C303.95 208.856 304.934 209.186 305.654 209.846C306.374 210.506 306.734 211.52 306.734 212.888V218H304.574L304.376 216.992H304.304C303.848 217.34 303.35 217.634 302.81 217.874C302.27 218.102 301.712 218.216 301.136 218.216C300.68 218.216 300.272 218.144 299.912 218C299.552 217.868 299.246 217.682 298.994 217.442C298.742 217.19 298.544 216.902 298.4 216.578C298.268 216.254 298.202 215.9 298.202 215.516ZM300.74 215.318C300.74 215.606 300.848 215.822 301.064 215.966C301.292 216.098 301.598 216.164 301.982 216.164C302.378 216.164 302.75 216.086 303.098 215.93C303.446 215.762 303.776 215.558 304.088 215.318V213.842C303.428 213.878 302.882 213.938 302.45 214.022C302.018 214.106 301.676 214.214 301.424 214.346C301.172 214.466 300.992 214.61 300.884 214.778C300.788 214.946 300.74 215.126 300.74 215.318ZM308.454 209.072H311.118L312.522 213.284C312.666 213.74 312.804 214.196 312.936 214.652C313.068 215.108 313.2 215.57 313.332 216.038H313.404C313.536 215.57 313.662 215.108 313.782 214.652C313.914 214.196 314.052 213.74 314.196 213.284L315.6 209.072H318.138L314.862 218H311.82L308.454 209.072ZM327.329 212.582L320.615 217.136V215.714L326.033 212.06V211.988L320.615 208.334V206.912L327.329 211.466V212.582Z" fill="#004A7C"/>
<rect x="253.25" y="235.25" width="99.5" height="29.5" rx="1.75" fill="#E8F1F5" fill-opacity="0.5" stroke="#004A7C" stroke-width="0.5"/>
<path d="M288.471 249.466L295.185 244.912V246.334L289.767 249.988V250.06L295.185 253.714V255.136L288.471 250.582V249.466ZM298.202 253.516C298.202 253.012 298.31 252.574 298.526 252.202C298.742 251.818 299.084 251.494 299.552 251.23C300.032 250.966 300.644 250.756 301.388 250.6C302.132 250.432 303.032 250.318 304.088 250.258C304.04 249.85 303.86 249.532 303.548 249.304C303.248 249.076 302.792 248.962 302.18 248.962C301.748 248.962 301.31 249.04 300.866 249.196C300.434 249.34 299.966 249.538 299.462 249.79L298.526 248.062C299.138 247.714 299.792 247.426 300.488 247.198C301.196 246.97 301.934 246.856 302.702 246.856C303.95 246.856 304.934 247.186 305.654 247.846C306.374 248.506 306.734 249.52 306.734 250.888V256H304.574L304.376 254.992H304.304C303.848 255.34 303.35 255.634 302.81 255.874C302.27 256.102 301.712 256.216 301.136 256.216C300.68 256.216 300.272 256.144 299.912 256C299.552 255.868 299.246 255.682 298.994 255.442C298.742 255.19 298.544 254.902 298.4 254.578C298.268 254.254 298.202 253.9 298.202 253.516ZM300.74 253.318C300.74 253.606 300.848 253.822 301.064 253.966C301.292 254.098 301.598 254.164 301.982 254.164C302.378 254.164 302.75 254.086 303.098 253.93C303.446 253.762 303.776 253.558 304.088 253.318V251.842C303.428 251.878 302.882 251.938 302.45 252.022C302.018 252.106 301.676 252.214 301.424 252.346C301.172 252.466 300.992 252.61 300.884 252.778C300.788 252.946 300.74 253.126 300.74 253.318ZM316.536 250.582L309.822 255.136V253.714L315.24 250.06V249.988L309.822 246.334V244.912L316.536 249.466V250.582Z" fill="#004A7C"/>
<rect x="253.25" y="275.25" width="99.5" height="29.5" rx="1.75" fill="#E8F1F5" fill-opacity="0.5" stroke="#004A7C" stroke-width="0.5"/>
<path d="M288.471 289.466L295.185 284.912V286.334L289.767 289.988V290.06L295.185 293.714V295.136L288.471 290.582V289.466ZM298.202 293.516C298.202 293.012 298.31 292.574 298.526 292.202C298.742 291.818 299.084 291.494 299.552 291.23C300.032 290.966 300.644 290.756 301.388 290.6C302.132 290.432 303.032 290.318 304.088 290.258C304.04 289.85 303.86 289.532 303.548 289.304C303.248 289.076 302.792 288.962 302.18 288.962C301.748 288.962 301.31 289.04 300.866 289.196C300.434 289.34 299.966 289.538 299.462 289.79L298.526 288.062C299.138 287.714 299.792 287.426 300.488 287.198C301.196 286.97 301.934 286.856 302.702 286.856C303.95 286.856 304.934 287.186 305.654 287.846C306.374 288.506 306.734 289.52 306.734 290.888V296H304.574L304.376 294.992H304.304C303.848 295.34 303.35 295.634 302.81 295.874C302.27 296.102 301.712 296.216 301.136 296.216C300.68 296.216 300.272 296.144 299.912 296C299.552 295.868 299.246 295.682 298.994 295.442C298.742 295.19 298.544 294.902 298.4 294.578C298.268 294.254 298.202 293.9 298.202 293.516ZM300.74 293.318C300.74 293.606 300.848 293.822 301.064 293.966C301.292 294.098 301.598 294.164 301.982 294.164C302.378 294.164 302.75 294.086 303.098 293.93C303.446 293.762 303.776 293.558 304.088 293.318V291.842C303.428 291.878 302.882 291.938 302.45 292.022C302.018 292.106 301.676 292.214 301.424 292.346C301.172 292.466 300.992 292.61 300.884 292.778C300.788 292.946 300.74 293.126 300.74 293.318ZM316.536 290.582L309.822 295.136V293.714L315.24 290.06V289.988L309.822 286.334V284.912L316.536 289.466V290.582Z" fill="#004A7C"/>
<rect x="253.25" y="315.25" width="99.5" height="29.5" rx="1.75" fill="#E8F1F5" fill-opacity="0.5" stroke="#004A7C" stroke-width="0.5"/>
<path d="M288.471 329.466L295.185 324.912V326.334L289.767 329.988V330.06L295.185 333.714V335.136L288.471 330.582V329.466ZM298.202 333.516C298.202 333.012 298.31 332.574 298.526 332.202C298.742 331.818 299.084 331.494 299.552 331.23C300.032 330.966 300.644 330.756 301.388 330.6C302.132 330.432 303.032 330.318 304.088 330.258C304.04 329.85 303.86 329.532 303.548 329.304C303.248 329.076 302.792 328.962 302.18 328.962C301.748 328.962 301.31 329.04 300.866 329.196C300.434 329.34 299.966 329.538 299.462 329.79L298.526 328.062C299.138 327.714 299.792 327.426 300.488 327.198C301.196 326.97 301.934 326.856 302.702 326.856C303.95 326.856 304.934 327.186 305.654 327.846C306.374 328.506 306.734 329.52 306.734 330.888V336H304.574L304.376 334.992H304.304C303.848 335.34 303.35 335.634 302.81 335.874C302.27 336.102 301.712 336.216 301.136 336.216C300.68 336.216 300.272 336.144 299.912 336C299.552 335.868 299.246 335.682 298.994 335.442C298.742 335.19 298.544 334.902 298.4 334.578C298.268 334.254 298.202 333.9 298.202 333.516ZM300.74 333.318C300.74 333.606 300.848 333.822 301.064 333.966C301.292 334.098 301.598 334.164 301.982 334.164C302.378 334.164 302.75 334.086 303.098 333.93C303.446 333.762 303.776 333.558 304.088 333.318V331.842C303.428 331.878 302.882 331.938 302.45 332.022C302.018 332.106 301.676 332.214 301.424 332.346C301.172 332.466 300.992 332.61 300.884 332.778C300.788 332.946 300.74 333.126 300.74 333.318ZM316.536 330.582L309.822 335.136V333.714L315.24 330.06V329.988L309.822 326.334V324.912L316.536 329.466V330.582Z" fill="#004A7C"/>
</g>
<defs>
<filter id="filter0_d" x="200" y="35" width="810" height="570" filterUnits="userSpaceOnUse" color-interpolation-filters="sRGB">
<feFlood flood-opacity="0" result="BackgroundImageFix"/>
<feColorMatrix in="SourceAlpha" type="matrix" values="0 0 0 0 0 0 0 0 0 0 0 0 0 0 0 0 0 0 127 0"/>
<feOffset dx="5"/>
<feGaussianBlur stdDeviation="2.5"/>
<feColorMatrix type="matrix" values="0 0 0 0 0 0 0 0 0 0 0 0 0 0 0 0 0 0 0.25 0"/>
<feBlend mode="normal" in2="BackgroundImageFix" result="effect1_dropShadow"/>
<feBlend mode="normal" in="SourceGraphic" in2="effect1_dropShadow" result="shape"/>
</filter>
<linearGradient id="paint0_linear" x1="1367.5" y1="-90.5001" x2="-494" y2="844.5" gradientUnits="userSpaceOnUse">
<stop stop-color="#004A7C"/>
<stop offset="1" stop-color="#E8F1F5"/>
</linearGradient>
<clipPath id="clip0">
<rect width="1200" height="600" fill="white"/>
</clipPath>
</defs>
</svg>
